<?xml version="1.0" standalone="no"?>
<!DOCTYPE svg PUBLIC "-//W3C//DTD SVG 20010904//EN"
 "http://www.w3.org/TR/2001/REC-SVG-20010904/DTD/svg10.dtd">
<svg version="1.0" xmlns="http://www.w3.org/2000/svg"
 width="512.000000pt" height="512.000000pt" viewBox="0 0 512.000000 512.000000"
 preserveAspectRatio="xMidYMid meet">
<metadata>
Created by potrace 1.14, written by Peter Selinger 2001-2017
</metadata>
<g transform="translate(0.000000,512.000000) scale(0.100000,-0.100000)"
fill="#000000" stroke="none">
<path d="M1280 4480 l0 -210 -158 0 c-113 0 -162 -4 -171 -12 -8 -7 -11 -8 -8
-2 4 7 -11 11 -43 11 -48 1 -50 0 -50 -26 0 -15 6 -33 13 -40 10 -11 10 -13 0
-7 -9 5 -13 0 -13 -12 0 -23 -17 -32 -45 -22 -48 17 -58 -4 -57 -127 0 -30 -6
-29 -18 2 -9 24 -10 25 -28 8 -10 -10 -16 -22 -13 -28 2 -5 -4 -3 -15 5 -29
22 -30 24 -13 18 9 -4 21 -3 28 1 7 5 0 8 -17 9 -29 1 -30 -1 -29 -39 2 -50
21 -57 49 -16 22 31 24 32 40 16 15 -16 15 -18 1 -23 -9 -4 -18 -4 -21 -1 -3
3 0 5 7 5 7 0 9 5 5 11 -4 8 -13 4 -25 -12 -9 -13 -15 -27 -13 -31 2 -4 -7 -5
-20 -2 l-24 4 -2 -534 -1 -534 -179 -179 -179 -178 179 -180 180 -180 0 -737
c1 -607 3 -738 14 -748 11 -8 15 -8 19 2 3 7 6 8 6 2 1 -5 -6 -19 -14 -30 -11
-14 -14 -15 -9 -3 3 10 1 20 -4 23 -5 3 -9 -6 -9 -19 0 -24 2 -25 38 -21 21 3
41 1 44 -5 4 -5 11 -7 16 -4 5 4 9 -19 9 -52 l0 -58 52 2 c33 1 56 -4 65 -13
8 -8 19 -12 23 -9 5 3 14 -4 20 -15 7 -13 7 -20 0 -20 -5 0 -10 7 -10 17 0 9
-3 13 -6 10 -4 -3 -15 -2 -25 4 -17 9 -19 6 -17 -31 1 -39 2 -40 35 -38 25 2
32 6 28 18 -4 11 -2 11 9 -2 12 -17 103 -18 1640 -18 1077 0 1626 3 1626 10 0
6 5 10 11 10 5 0 8 -4 5 -9 -3 -5 10 -9 29 -8 21 1 30 4 22 9 -9 6 -9 8 1 8 8
0 13 10 12 27 -4 52 -2 53 50 53 l50 0 0 55 c0 30 3 56 8 56 35 6 57 2 54 -9
-1 -9 5 -8 23 4 26 17 34 44 13 44 -9 0 -9 3 -2 8 13 9 12 -69 13 1314 l1
1167 251 251 252 252 -259 259 c-142 142 -262 259 -265 259 -3 0 -25 -18 -47
-41 -40 -39 -50 -38 -43 4 1 6 -56 12 -86 8 -7 -1 -13 3 -13 9 0 6 -6 8 -12 4
-9 -5 -9 -2 1 9 13 17 4 24 -15 10 -5 -5 -1 -1 8 9 10 9 18 29 18 45 0 22 -2
25 -10 13 -5 -8 -10 -10 -10 -4 0 12 -69 13 -89 0 -10 -6 -12 -5 -7 2 5 9 -35
12 -153 12 l-161 0 0 210 0 210 -215 0 -215 0 0 -210 0 -210 -850 0 -850 0 0
210 0 210 -215 0 -215 0 0 -210z m-399 -243 c-13 -13 -26 -3 -16 12 3 6 11 8
17 5 6 -4 6 -10 -1 -17z m47 -3 c0 -17 -3 -22 -8 -13 -5 6 -6 18 -3 26 8 19
11 16 11 -13z m37 6 c-3 -5 -12 -10 -18 -10 -7 0 -6 4 3 10 19 12 23 12 15 0z
m3251 -2 c-9 -5 -23 -5 -32 0 -12 6 -7 9 16 9 23 0 28 -3 16 -9z m-36 -38 c-6
-11 -13 -20 -16 -20 -3 0 -1 8 5 17 6 12 5 21 -7 31 -15 11 -14 12 6 2 18 -9
20 -14 12 -30z m70 30 c0 -5 -7 -10 -16 -10 -8 0 -13 -3 -10 -8 7 -11 -23 -47
-31 -37 -5 4 -2 10 5 12 6 3 10 9 7 13 -3 5 5 16 17 24 26 19 28 19 28 6z
m-3330 -44 c0 -5 -7 -1 -15 10 -8 10 -14 24 -14 29 0 6 6 1 14 -9 8 -11 15
-24 15 -30z m3205 14 c3 -5 1 -10 -4 -10 -6 0 -11 5 -11 10 0 6 2 10 4 10 3 0
8 -4 11 -10z m-3240 -19 c-3 -6 -11 -11 -16 -11 -5 0 -4 6 3 14 14 16 24 13
13 -3z m71 -6 c9 -8 11 -15 6 -15 -5 0 -15 7 -22 15 -7 8 -9 15 -6 15 4 0 14
-7 22 -15z m-289 -187 c-3 -8 -6 -5 -6 6 -1 11 2 17 5 13 3 -3 4 -12 1 -19z
m53 -22 c0 -3 -4 -8 -10 -11 -5 -3 -10 -1 -10 4 0 6 5 11 10 11 6 0 10 -2 10
-4z m30 0 c0 -3 -4 -8 -10 -11 -5 -3 -10 -1 -10 4 0 6 5 11 10 11 6 0 10 -2
10 -4z m3300 -153 c0 -21 -38 -65 -188 -215 l-189 -188 -1301 0 -1302 0 0 215
0 215 1490 0 1490 0 0 -27z m-1036 -1062 c-208 -208 -239 -236 -242 -215 l-3
24 -210 0 -209 0 0 -214 c0 -206 1 -215 20 -218 15 -2 -23 -45 -168 -190
l-188 -187 -189 190 -190 189 143 0 142 0 0 215 0 215 -215 0 -215 0 0 -142 0
-143 -210 210 -210 210 0 147 0 148 1091 0 1092 0 -239 -239z m1036 -961 l0
-940 -940 0 c-517 0 -940 2 -940 4 0 3 95 100 211 215 l210 211 90 0 89 0 0
89 0 90 336 335 335 336 95 0 94 0 0 94 0 95 203 204 c111 113 205 205 210
206 4 1 7 -422 7 -939z m-2560 -487 c0 -18 6 -23 26 -23 21 0 71 -45 243 -215
l216 -215 -452 0 -453 0 0 447 0 448 210 -210 c149 -149 210 -216 210 -232z
m-816 -568 c3 -9 12 -12 23 -8 10 3 15 3 12 -1 -4 -4 -19 -9 -35 -11 -16 -2
-23 -2 -16 1 10 5 10 9 1 20 -7 8 -7 14 -1 14 5 0 12 -7 16 -15z m73 0 c4 -4
3 -5 -4 -2 -6 4 -13 2 -15 -5 -3 -8 -6 -6 -10 4 -7 17 15 19 29 3z m3646 -2
c-4 -11 -3 -14 5 -9 7 4 12 5 12 2 0 -3 -10 -10 -21 -17 -12 -6 -19 -7 -17 -2
3 4 8 16 11 26 4 9 9 17 11 17 3 0 2 -7 -1 -17z m37 7 c0 -5 -2 -10 -4 -10 -3
0 -8 5 -11 10 -3 6 -1 10 4 10 6 0 11 -4 11 -10z m23 -7 c-5 -11 -3 -14 6 -8
10 6 11 3 2 -14 -14 -25 -23 -28 -14 -4 5 11 3 14 -6 8 -10 -6 -11 -3 -2 14
14 25 23 28 14 4z m-3706 -28 c0 -8 -4 -12 -9 -9 -5 3 -6 10 -3 15 9 13 12 11
12 -6z m-37 -5 c-13 -9 -7 -14 13 -11 4 0 7 -3 7 -9 0 -15 -27 -12 -33 4 -6
16 1 26 17 26 6 0 4 -5 -4 -10z m3730 -32 c0 -4 7 -4 17 -1 11 4 14 3 9 -5
-11 -19 -26 -14 -38 13 -11 24 -30 26 -24 2 1 -7 1 -9 -1 -4 -3 4 -9 7 -14 7
-6 0 -8 -4 -4 -9 3 -5 1 -12 -4 -15 -18 -11 -5 24 15 39 17 12 20 12 32 -2 6
-9 12 -20 12 -25z m-3690 -8 c0 -5 -5 -10 -11 -10 -5 0 -7 5 -4 10 3 6 8 10
11 10 2 0 4 -4 4 -10z m194 -191 c-2 -4 1 -10 6 -12 7 -4 6 -5 -1 -4 -6 2 -11
7 -11 12 0 6 -9 24 -20 40 l-20 30 26 -29 c13 -17 23 -33 20 -37z m11 43 c-3
-3 -11 0 -18 7 -9 10 -8 11 6 5 10 -3 15 -9 12 -12z m3230 -3 c-4 -5 -12 -9
-18 -8 -9 0 -8 2 1 6 6 2 9 10 6 15 -4 7 -2 8 5 4 6 -4 9 -12 6 -17z m65 10
c0 -5 -4 -8 -9 -5 -5 3 -12 -1 -15 -10 -4 -9 -9 -14 -13 -11 -7 8 15 37 28 37
5 0 9 -5 9 -11z m-58 -44 c-8 -16 -9 -16 -15 -1 -4 10 -3 15 3 11 6 -3 10 -1
10 6 0 7 3 10 6 6 3 -3 2 -13 -4 -22z m68 16 c0 -5 -7 -17 -16 -25 -16 -17
-34 -13 -34 7 0 7 4 6 10 -3 9 -14 14 -7 11 13 -1 5 3 6 9 2 5 -3 10 -1 10 4
0 6 2 11 5 11 3 0 5 -4 5 -9z m-3393 -23 c-3 -8 -6 -5 -6 6 -1 11 2 17 5 13 3
-3 4 -12 1 -19z m31 -23 c-3 -3 -9 2 -12 12 -6 14 -5 15 5 6 7 -7 10 -15 7
-18z"/>
<path d="M3200 1495 l0 -215 215 0 215 0 0 215 0 215 -215 0 -215 0 0 -215z"/>
</g>
</svg>
