<?xml version="1.0" standalone="no"?>
<!DOCTYPE svg PUBLIC "-//W3C//DTD SVG 20010904//EN"
 "http://www.w3.org/TR/2001/REC-SVG-20010904/DTD/svg10.dtd">
<svg version="1.0" xmlns="http://www.w3.org/2000/svg"
 width="80.000000pt" height="80.000000pt" viewBox="0 0 80.000000 80.000000"
 preserveAspectRatio="xMidYMid meet">
<metadata>
Created by potrace 1.14, written by Peter Selinger 2001-2017
</metadata>
<g transform="translate(0.000000,80.000000) scale(0.100000,-0.100000)"
fill="#000000" stroke="none">
<path d="M355 697 c-39 -19 -86 -40 -105 -47 -48 -19 -99 -52 -136 -89 -18
-17 -49 -37 -70 -45 l-39 -13 -3 -151 -3 -151 28 -14 c97 -49 235 -80 346 -76
125 4 157 20 162 80 1 16 12 41 24 53 14 14 23 37 23 57 0 19 7 41 15 50 8 9
16 30 18 45 2 16 4 31 4 34 1 3 29 5 63 4 35 0 75 3 91 9 24 8 27 14 27 52 0
43 -9 57 -40 62 -8 1 -97 3 -197 4 l-183 1 44 28 c50 32 56 40 62 80 4 21 -1
32 -18 44 -30 21 -33 21 -113 -17z"/>
</g>
</svg>
